<svg width="104" height="25" viewBox="0 0 104 25" fill="none" xmlns="http://www.w3.org/2000/svg">
<path d="M0.188082 17.5948C-0.212483 16.9223 0.0641429 16.051 0.77923 15.7327L7.11271 12.9137C7.49553 12.7434 7.93685 12.7669 8.29933 12.9772L11.9184 15.076C12.2789 15.2851 12.5181 15.6537 12.5621 16.0682L13.301 23.0275C13.3834 23.8035 12.7715 24.4782 11.9912 24.4718L9.06353 24.4477C8.27565 24.4413 7.67274 23.744 7.78004 22.9635L8.36548 18.7044C8.41351 18.3551 8.24503 18.0114 7.93943 17.8355C7.63343 17.6592 7.2511 17.6863 6.97299 17.9039L3.63882 20.5125C3.01897 20.9975 2.11421 20.8283 1.71144 20.1522L0.188082 17.5948Z" fill="white"/>
<path fill-rule="evenodd" clip-rule="evenodd" d="M13.9418 14.8855L19.5386 19.0025C19.8555 19.2356 20.3051 19.1377 20.4964 18.794L21.9468 16.1885C22.1378 15.8454 21.9851 15.4126 21.621 15.2653L17.6555 13.6611C17.0812 13.4287 16.7054 12.8712 16.7054 12.2517C16.7054 11.6361 17.0766 11.0813 17.6456 10.8464L21.6249 9.2037C21.9872 9.05417 22.1371 8.62156 21.9451 8.27992L20.5 5.70813C20.3077 5.36608 19.8595 5.26946 19.5435 5.50194L13.9418 9.62228C13.7745 9.74538 13.6757 9.94073 13.6757 10.1485V14.3593C13.6757 14.5671 13.7745 14.7624 13.9418 14.8855ZM13.5548 15.4117C13.2201 15.1655 13.0225 14.7748 13.0225 14.3593V10.1485C13.0225 9.73299 13.2201 9.34228 13.5548 9.0961L19.1564 4.97575C19.7885 4.5108 20.685 4.70405 21.0694 5.38813L22.5146 7.95993C22.8986 8.6432 22.5986 9.50842 21.8742 9.80748L17.8948 11.4502C17.5703 11.5841 17.3586 11.9006 17.3586 12.2517C17.3586 12.605 17.5729 12.923 17.9005 13.0555L21.866 14.6598C22.5941 14.9543 22.8995 15.82 22.5175 16.5062L21.0672 19.1117C20.6845 19.7992 19.7854 19.9949 19.1516 19.5286L13.5548 15.4117Z" fill="#2DEBFC"/>
<path d="M11.9185 9.38375C12.2791 9.17465 12.5182 8.80605 12.5622 8.39158L13.2999 1.44435C13.3827 0.664014 12.7638 -0.0127738 11.9792 0.000183035L9.05117 0.0485359C8.26771 0.0614737 7.6718 0.756401 7.77851 1.53267L8.36542 5.80245C8.41357 6.15273 8.24461 6.49724 7.93818 6.67362C7.63275 6.84942 7.25137 6.82327 6.97279 6.60742L3.59287 3.98858C2.97152 3.50715 2.0688 3.67945 1.66846 4.35588L0.182533 6.86653C-0.215377 7.53885 0.0618353 8.40778 0.775578 8.72545L7.11286 11.546C7.49568 11.7164 7.937 11.6928 8.29948 11.4826L11.9185 9.38375Z" fill="#2C85FC"/>
<path d="M42.8469 11.1423V19.6446H46.0104V8.80922H41.4033V11.1423H42.8469Z" fill="white"/>
<path d="M42.7479 7.28677C43.0379 7.58988 43.4795 7.74146 44.0726 7.74146C44.666 7.74146 45.1007 7.58988 45.3773 7.28677C45.6677 6.97029 45.8124 6.57484 45.8124 6.10042C45.8124 5.61264 45.6677 5.21716 45.3773 4.91407C45.1007 4.59772 44.666 4.43948 44.0726 4.43948C43.4795 4.43948 43.0379 4.59772 42.7479 4.91407C42.4712 5.21716 42.3328 5.61264 42.3328 6.10042C42.3328 6.57484 42.4712 6.97029 42.7479 7.28677Z" fill="white"/>
<path d="M67.4442 19.594C67.7342 19.8971 68.1758 20.0487 68.7689 20.0487C69.3623 20.0487 69.797 19.8971 70.0736 19.594C70.364 19.2775 70.5087 18.882 70.5087 18.4076C70.5087 17.9198 70.364 17.5244 70.0736 17.2213C69.797 16.9049 69.3623 16.7467 68.7689 16.7467C68.1758 16.7467 67.7342 16.9049 67.4442 17.2213C67.1675 17.5244 67.0291 17.9198 67.0291 18.4076C67.0291 18.882 67.1675 19.2775 67.4442 19.594Z" fill="white"/>
<path d="M31.8337 19.4071C32.7299 19.8157 33.8306 20.0202 35.1354 20.0202C36.3614 20.0202 37.4157 19.8291 38.2991 19.4466C39.1823 19.0645 39.861 18.5305 40.3355 17.8453C40.8235 17.1464 41.0671 16.3358 41.0671 15.4131C41.0671 14.5168 40.8368 13.7588 40.3754 13.1392C39.9269 12.5066 39.3012 12.0122 38.4967 11.6564C37.6926 11.2873 36.7635 11.0566 35.7089 10.9644L34.6017 10.8655C33.9426 10.8127 33.4681 10.6349 33.178 10.3316C32.888 10.0285 32.743 9.6725 32.743 9.26399C32.743 8.94748 32.8224 8.65758 32.9801 8.39395C33.1385 8.11709 33.3756 7.89964 33.6921 7.7414C34.0216 7.58329 34.4237 7.50419 34.8982 7.50419C35.3989 7.50419 35.8144 7.59636 36.1439 7.78102C36.2164 7.82005 36.2853 7.86175 36.35 7.90601L36.3657 7.91698C36.3898 7.93371 36.4137 7.95105 36.4369 7.96855C36.6371 8.12157 36.7965 8.30289 36.915 8.51254C37.0861 8.80263 37.1724 9.12547 37.1724 9.48144H40.3355C40.3355 8.5323 40.118 7.70845 39.6833 7.00988C39.2483 6.29808 38.6222 5.75106 37.805 5.36867C37.0006 4.97322 36.0319 4.7755 34.8982 4.7755C33.8172 4.7755 32.8815 4.96016 32.0904 5.32919C31.2997 5.68515 30.6802 6.19922 30.2321 6.87137C29.7967 7.54368 29.5792 8.34127 29.5792 9.26399C29.5792 10.5425 30.008 11.5706 30.8647 12.3485C31.7214 13.1262 32.8684 13.5743 34.3051 13.6929L35.3927 13.7918C36.2755 13.8709 36.915 14.0489 37.3105 14.3256C37.7057 14.5892 37.9036 14.9517 37.9036 15.4131C37.9036 15.6251 37.869 15.824 37.7994 16.0098C37.7478 16.1476 37.6773 16.2783 37.5875 16.4017C37.3762 16.6787 37.0666 16.8959 36.658 17.0543C36.2494 17.2124 35.7419 17.2914 35.1354 17.2914C34.4632 17.2914 33.9162 17.1993 33.4945 17.0148C33.0725 16.8168 32.7564 16.5598 32.5451 16.2437C32.3475 15.9271 32.2489 15.5845 32.2489 15.2154H29.105C29.105 16.1512 29.3356 16.9818 29.7967 17.7068C30.2582 18.4185 30.9372 18.9855 31.8337 19.4071Z" fill="white"/>
<path d="M74.657 19.4071C75.5532 19.8157 76.6538 20.0202 77.9586 20.0202C79.1847 20.0202 80.2389 19.8291 81.1224 19.4466C82.0055 19.0645 82.6842 18.5305 83.1587 17.8453C83.6467 17.1464 83.8903 16.3358 83.8903 15.4131C83.8903 14.5168 83.6601 13.7588 83.1986 13.1392C82.7502 12.5066 82.1244 12.0122 81.32 11.6564C80.5159 11.2873 79.5867 11.0566 78.5321 10.9644L77.4249 10.8655C76.7658 10.8127 76.2913 10.6349 76.0013 10.3316C75.7113 10.0285 75.5662 9.6725 75.5662 9.26399C75.5662 8.94748 75.6456 8.65758 75.8034 8.39395C75.9618 8.11709 76.1989 7.89964 76.5153 7.7414C76.8449 7.58329 77.2469 7.50419 77.7215 7.50419C78.2222 7.50419 78.6376 7.59636 78.9671 7.78102C79.0396 7.82005 79.1086 7.86175 79.1732 7.90601L79.1889 7.91698C79.2131 7.93371 79.2369 7.95105 79.2601 7.96855C79.4603 8.12157 79.6197 8.30289 79.7383 8.51254C79.9094 8.80263 79.9956 9.12547 79.9956 9.48144H83.1587C83.1587 8.5323 82.9412 7.70845 82.5065 7.00988C82.0715 6.29808 81.4454 5.75106 80.6282 5.36867C79.8238 4.97322 78.8551 4.7755 77.7215 4.7755C76.6404 4.7755 75.7047 4.96016 74.9137 5.32919C74.123 5.68515 73.5034 6.19922 73.0553 6.87137C72.62 7.54368 72.4025 8.34127 72.4025 9.26399C72.4025 10.5425 72.8313 11.5706 73.688 12.3485C74.5446 13.1262 75.6917 13.5743 77.1284 13.6929L78.216 13.7918C79.0988 13.8709 79.7383 14.0489 80.1338 14.3256C80.529 14.5892 80.7269 14.9517 80.7269 15.4131C80.7269 15.6251 80.6923 15.824 80.6227 16.0098C80.5711 16.1476 80.5005 16.2783 80.4107 16.4017C80.1994 16.6787 79.8898 16.8959 79.4812 17.0543C79.0726 17.2124 78.5651 17.2914 77.9586 17.2914C77.2865 17.2914 76.7394 17.1993 76.3178 17.0148C75.8958 16.8168 75.5796 16.5598 75.3683 16.2437C75.1707 15.9271 75.0721 15.5845 75.0721 15.2154H71.9282C71.9282 16.1512 72.1588 16.9818 72.62 17.7068C73.0815 18.4185 73.7605 18.9855 74.657 19.4071Z" fill="white"/>
<path d="M53.0689 19.7827C51.9748 19.7827 51.0916 19.6511 50.4195 19.3872C49.747 19.1106 49.2529 18.6559 48.9364 18.0233C48.6333 17.3773 48.4817 16.5072 48.4817 15.4131V11.1225H46.8406V8.80916H48.4817V5.88287H51.4277V8.80916H54.5915V11.1225H51.4277V15.5318C51.4277 16.0459 51.5596 16.4413 51.8232 16.7179C52.0998 16.9818 52.4888 17.1134 52.9898 17.1134H54.5915V19.7827H53.0689Z" fill="white"/>
<path d="M102.325 19.7827C101.231 19.7827 100.348 19.6511 99.6756 19.3872C99.0031 19.1106 98.509 18.6559 98.1925 18.0233C97.8894 17.3773 97.7379 16.5072 97.7379 15.4131V11.1225H96.0967V8.80916H97.7379V5.88287H100.684V8.80916H103.848V11.1225H100.684V15.5318C100.684 16.0459 100.816 16.4413 101.079 16.7179C101.356 16.9818 101.745 17.1134 102.246 17.1134H103.848V19.7827H102.325Z" fill="white"/>
<path fill-rule="evenodd" clip-rule="evenodd" d="M58.4004 19.5457C59.1121 19.8621 59.9296 20.0202 60.8522 20.0202C61.7615 20.0202 62.5659 19.8621 63.2645 19.5457C63.9631 19.2292 64.5432 18.7876 65.0043 18.221C65.4658 17.654 65.7758 17.0083 65.9335 16.2832H63.0271C62.8955 16.6128 62.6449 16.8894 62.2759 17.1135C61.9068 17.3378 61.4319 17.4499 60.8522 17.4499C60.493 17.4499 60.1719 17.4074 59.8891 17.3222C59.6739 17.2575 59.4808 17.1683 59.31 17.0543C58.9145 16.7908 58.6245 16.4214 58.44 15.9471C58.3887 15.812 58.3449 15.6706 58.308 15.5233C58.2704 15.3741 58.2401 15.2189 58.2172 15.0573H66.1314V13.9896C66.1314 13.001 65.9204 12.0914 65.4988 11.2611C65.0768 10.4173 64.4638 9.73847 63.66 9.2244C62.869 8.69714 61.8934 8.4335 60.7333 8.4335C59.8502 8.4335 59.0592 8.59174 58.3606 8.90809C57.6757 9.21117 57.1022 9.62638 56.6407 10.1536C56.1795 10.6809 55.8235 11.2808 55.5727 11.9531C55.3356 12.612 55.217 13.304 55.217 14.0291V14.4245C55.217 15.1233 55.3356 15.8086 55.5727 16.4808C55.8235 17.1399 56.1795 17.7396 56.6407 18.2801C57.1153 18.8075 57.7015 19.2292 58.4004 19.5457ZM58.2718 13.1022C58.2806 13.0603 58.2897 13.0191 58.2998 12.9785C58.3273 12.8667 58.359 12.7596 58.3949 12.6572C58.4151 12.599 58.4367 12.5421 58.4599 12.4869C58.6575 11.9991 58.9475 11.6301 59.3296 11.3796C59.4727 11.286 59.6275 11.2099 59.7937 11.1513C60.0733 11.0531 60.3868 11.004 60.7333 11.004C61.2742 11.004 61.722 11.1292 62.078 11.3796C62.447 11.6169 62.724 11.9662 62.9085 12.4275C62.9235 12.4647 62.9376 12.5027 62.9513 12.541C62.9732 12.6021 62.9934 12.6649 63.0124 12.7292C63.0401 12.8249 63.0646 12.9239 63.0862 13.0263C63.1019 13.1017 63.1153 13.1789 63.1273 13.2581H58.2414C58.2505 13.2052 58.2606 13.1533 58.2718 13.1022Z" fill="white"/>
<path fill-rule="evenodd" clip-rule="evenodd" d="M87.8492 19.5457C88.5608 19.8621 89.3783 20.0202 90.301 20.0202C91.2102 20.0202 92.0146 19.8621 92.7132 19.5457C93.4118 19.2292 93.9919 18.7876 94.453 18.221C94.9145 17.654 95.2245 17.0083 95.3822 16.2832H92.4758C92.3442 16.6128 92.0937 16.8894 91.7246 17.1135C91.3556 17.3378 90.8807 17.4499 90.301 17.4499C89.9417 17.4499 89.6206 17.4074 89.3378 17.3222C89.1226 17.2575 88.9296 17.1683 88.7587 17.0543C88.3632 16.7908 88.0732 16.4214 87.8887 15.9471C87.8374 15.812 87.7936 15.6706 87.7567 15.5233C87.7192 15.3741 87.6888 15.2189 87.6659 15.0573H95.5802V13.9896C95.5802 13.001 95.3692 12.0914 94.9475 11.2611C94.5256 10.4173 93.9125 9.73847 93.1088 9.2244C92.3177 8.69714 91.3422 8.4335 90.1821 8.4335C89.2989 8.4335 88.5079 8.59174 87.8093 8.90809C87.1244 9.21117 86.5509 9.62638 86.0894 10.1536C85.6283 10.6809 85.2723 11.2808 85.0214 11.9531C84.7843 12.612 84.6658 13.304 84.6658 14.0291V14.4245C84.6658 15.1233 84.7843 15.8086 85.0214 16.4808C85.2723 17.1399 85.6283 17.7396 86.0894 18.2801C86.564 18.8075 87.1502 19.2292 87.8492 19.5457ZM87.7205 13.1022C87.7293 13.0603 87.7384 13.0191 87.7486 12.9785C87.776 12.8667 87.8077 12.7596 87.8436 12.6572C87.8639 12.599 87.8854 12.5421 87.9086 12.4869C88.1062 11.9991 88.3962 11.6301 88.7783 11.3796C88.9214 11.286 89.0762 11.2099 89.2424 11.1513C89.522 11.0531 89.8356 11.004 90.1821 11.004C90.7229 11.004 91.1707 11.1292 91.5267 11.3796C91.8958 11.6169 92.1727 11.9662 92.3572 12.4275C92.3723 12.4647 92.3863 12.5027 92.4 12.541C92.4219 12.6021 92.4422 12.6649 92.4611 12.7292C92.4889 12.8249 92.5134 12.9239 92.5349 13.0263C92.5506 13.1017 92.564 13.1789 92.5761 13.2581H87.6901C87.6993 13.2052 87.7094 13.1533 87.7205 13.1022Z" fill="white"/>
</svg>
